.
 
http://www.scenetime.com    -  Hottest private tracker on the net. !!!

Sign up will close shortly !!  Join now 

        Seed back for speed


...................................NFO:.................................................








































          
          
              
              
                    
                    
                    
                    

Torrid.Zone.1940.DVDRip.x264.AC3-SiC

Poster:
[img]http://img706.imageshack.us/img706/1265/torridzoneposter.jpg[/img]

IMDB Link: 
http://www.imdb.com/title/tt0033175/

Description:
Plagued by revolutionaries that harass his plantation in a banana republic, fruit company exec Steve Case rehires former nemesis Nick Butler to restore order and profits. 

MediaInfo:
General
Complete name                    : Torrid.Zone.1940.DVDRip.x264.AC3-SiC.mkv
Format                           : Matroska
Format version                   : Version 2
File size                        : 1.41 GiB
Duration                         : 1h 28mn
Overall bit rate                 : 2 293 Kbps
Encoded date                     : UTC 2011-08-17 16:43:01
Writing application              : mkvmerge v4.9.1 ('Ich will') built on Jul 11 2011 23:53:15
Writing library                  : libebml v1.2.1 + libmatroska v1.1.1

Video
ID                               : 2
Format                           : AVC
Format/Info                      : Advanced Video Codec
Format profile                   : High@L4.1
Format settings, CABAC           : Yes
Format settings, ReFrames        : 4 frames
Muxing mode                      : Header stripping
Codec ID                         : V_MPEG4/ISO/AVC
Duration                         : 1h 28mn
Bit rate                         : 2 100 Kbps
Width                            : 704 pixels
Height                           : 480 pixels
Display aspect ratio             : 4:3
Frame rate                       : 23.976 fps
Standard                         : NTSC
Color space                      : YUV
Chroma subsampling               : 4:2:0
Bit depth                        : 8 bits
Scan type                        : Progressive
Bits/(Pixel*Frame)               : 0.259
Stream size                      : 1.26 GiB (90%)
Writing library                  : x264 core 115 r1995 c1e60b9
Encoding settings                : cabac=1 / ref=3 / deblock=1:0:0 / analyse=0x3:0x133 / me=umh / subme=7 / psy=1 / psy_rd=1.00:0.00 / mixed_ref=1 / me_range=16 / chroma_me=1 / trellis=1 / 8x8dct=1 / cqm=0 / deadzone=21,11 / fast_pskip=1 / chroma_qp_offset=-2 / threads=9 / sliced_threads=0 / nr=0 / decimate=1 / interlaced=0 / bluray_compat=0 / constrained_intra=0 / bframes=3 / b_pyramid=2 / b_adapt=1 / b_bias=0 / direct=1 / weightb=1 / open_gop=1 / weightp=2 / keyint=250 / keyint_min=23 / scenecut=40 / intra_refresh=0 / rc_lookahead=40 / rc=2pass / mbtree=1 / bitrate=2100 / ratetol=1.0 / qcomp=0.60 / qpmin=0 / qpmax=69 / qpstep=4 / cplxblur=20.0 / qblur=0.5 / ip_ratio=1.40 / aq=1:1.00
Language                         : English

Audio
ID                               : 1
Format                           : AC-3
Format/Info                      : Audio Coding 3
Mode extension                   : CM (complete main)
Muxing mode                      : Header stripping
Codec ID                         : A_AC3
Duration                         : 1h 28mn
Bit rate mode                    : Constant
Bit rate                         : 192 Kbps
Channel(s)                       : 1 channel
Channel positions                : Front: C
Sampling rate                    : 48.0 KHz
Bit depth                        : 16 bits
Compression mode                 : Lossy
Delay relative to video          : 7ms
Stream size                      : 121 MiB (8%)



Screenshots:
[img]http://img713.imageshack.us/img713/8559/vlcsnap2011081716h40m42.png[/img]
[img]http://img560.imageshack.us/img560/4519/vlcsnap2011081716h41m11.png[/img]
[img]http://img36.imageshack.us/img36/8155/vlcsnap2011081716h41m18.png[/img]
[img]http://img37.imageshack.us/img37/3514/vlcsnap2011081716h41m28.png[/img]
[img]http://img821.imageshack.us/img821/7060/vlcsnap2011081716h41m41.png[/img]

Note: N/A

Encoder: Brian

Enjoy!

Respects to CaptainHomey, Cyanide, CM8, Rx, THC, ELEKTRI4KA, 
Killerhz, PA, YeFsTe, BoxSlots, MrRep and everyone in the struggle...